# xmcd CD database file
#
# Track frame offsets:
#	150
#	14587
#	27925
#	40160
#	56350
#	70512
#	84450
#	96447
#	107562
#	118685
#	128762
#	139437
#	150800
#	163600
#	174050
#	186082
#	201012
#	215420
#	226825
#	238442
#	248162
#	259787
#	270802
#	285207
#
# Disc length: 3941 seconds
#
# Revision: 0
# Processed by: cddbd v1.4PL0 Copyright (c) Steve Scherf et al.
# Submitted via: CDex 1.50beta8
#
DISCID=3a0f6318
DTITLE=Jimmy Scott - All Over Again
DYEAR=1994
DGENRE=Jazz
TTITLE0=Sometimes I Feel Like A Motherless Child
TTITLE1=An Evening In Paradise
TTITLE2=If I Ever Lost You
TTITLE3=I'm Afraid The Masquerade Is Over
TTITLE4=Please Forgive Me
TTITLE5=How Else
TTITLE6=If You Are But A Dream
TTITLE7=The Way You Look Tonight
TTITLE8=Things That Are Love
TTITLE9=Everybody's Somebody's Fool
TTITLE10=Once
TTITLE11=What Good Would It Be
TTITLE12=Imagination
TTITLE13=How Can I Go On Without You
TTITLE14=Time On My Hands
TTITLE15=When Did You Leave Heaven
TTITLE16=Guilty
TTITLE17=Everybody Needs Somebody
TTITLE18=Why Don't You Open Your Heart
TTITLE19=Don't Cry Baby
TTITLE20=Street Of Dreams
TTITLE21=Someone To Watch Over Me
TTITLE22=The Show Goes On
TTITLE23=Very Truly Yours
EXTD=YEAR: 1994
EXTT0=
EXTT1=
EXTT2=
EXTT3=
EXTT4=
EXTT5=
EXTT6=
EXTT7=
EXTT8=
EXTT9=
EXTT10=
EXTT11=
EXTT12=
EXTT13=
EXTT14=
EXTT15=
EXTT16=
EXTT17=
EXTT18=
EXTT19=
EXTT20=
EXTT21=
EXTT22=
EXTT23=
PLAYORDER=
